<mxfile host="app.diagrams.net" modified="2022-07-13T10:38:19.603Z" agent="5.0 (Windows NT 10.0; Win64; x64) AppleWebKit/537.36 (KHTML, like Gecko) Chrome/103.0.0.0 Safari/537.36" etag="lqKW9-iPHiazN12mQ_jz" version="20.0.4" type="github">
  <diagram id="s9EjchyGP2vE1d-u13Uv" name="Page-1">
    <mxGraphModel dx="1329" dy="802" grid="1" gridSize="10" guides="1" tooltips="1" connect="1" arrows="1" fold="1" page="1" pageScale="1" pageWidth="1169" pageHeight="1654" math="0" shadow="0">
      <root>
        <mxCell id="0" />
        <mxCell id="1" parent="0" />
      </root>
    </mxGraphModel>
  </diagram>
</mxfile>
